<svg width="200" height="200" viewBox="0 0 128 128" fill="none" xmlns="http://www.w3.org/2000/svg" class=""><defs><linearGradient id="gradient1" x1="0" y1="0" x2="128" y2="128" gradientUnits="userSpaceOnUse"><stop offset="0%" stop-color="#4F46E5"/><stop offset="100%" stop-color="#7C3AED"/></linearGradient><linearGradient id="gradient2" x1="0" y1="0" x2="0" y2="128" gradientUnits="userSpaceOnUse"><stop offset="0%" stop-color="#FFFFFF" stop-opacity="0.95"/><stop offset="100%" stop-color="#FFFFFF" stop-opacity="0.85"/></linearGradient></defs><circle cx="64" cy="64" r="64" fill="url(#gradient1)"/><circle cx="64" cy="60" r="32" fill="none" stroke="url(#gradient2)" stroke-width="11" opacity="0.95"/><path d="M80 78L92 90" stroke="url(#gradient2)" stroke-width="11" stroke-linecap="round" opacity="0.95"/><g opacity="0.8"><rect x="54" y="44" width="20" height="3" rx="1.5" fill="#FFFFFF"/><rect x="56" y="50" width="16" height="3" rx="1.5" fill="#FFFFFF"/><rect x="58" y="56" width="12" height="3" rx="1.5" fill="#FFFFFF"/></g><path d="M56 62L60 66L72 54" stroke="#FFFFFF" stroke-width="4" stroke-linecap="round" stroke-linejoin="round" fill="none" opacity="0.9"/><path d="M50 72L54 68L58 70L62 66L66 68L70 64L74 66L78 68" stroke="#FFFFFF" stroke-width="3" stroke-linecap="round" stroke-linejoin="round" fill="none" opacity="0.7"/><g opacity="0.9"><circle cx="82" cy="42" r="3" fill="#FDE047"/><path d="M82 36L82 48M76 42L88 42" stroke="#FDE047" stroke-width="2.5" stroke-linecap="round"/></g></svg>